<svg width="637" height="653" viewBox="0 0 637 653" fill="none" xmlns="http://www.w3.org/2000/svg">
<path d="M435.4 54.7435C438.071 53.2963 441.409 54.2881 442.857 56.9588L618.094 380.34C619.541 383.011 618.55 386.349 615.879 387.796L358.882 527.061C266.912 576.898 151.954 542.744 102.117 450.774C52.2789 358.804 86.4338 243.846 178.404 194.008L435.4 54.7435Z" stroke="white"/>
<path d="M450.643 3.29823C453.313 1.85102 456.651 2.84282 458.099 5.51347L633.336 328.895C634.784 331.565 633.792 334.903 631.121 336.351L374.124 475.615C282.155 525.453 167.197 491.298 117.359 399.328C67.5211 307.358 101.676 192.401 193.646 142.563L450.643 3.29823Z" stroke="white"/>
<path d="M430.252 71.892C432.923 70.4448 436.261 71.4366 437.708 74.1072L612.946 397.488C614.393 400.159 613.401 403.497 610.731 404.944L353.734 544.209C261.764 594.047 146.806 559.892 96.9683 467.922C47.1305 375.952 81.2853 260.994 173.255 211.157L430.252 71.892Z" stroke="white"/>
<path d="M445.494 20.4467C448.165 18.9995 451.503 19.9913 452.95 22.6619L628.188 346.043C629.635 348.714 628.643 352.052 625.973 353.499L368.976 492.764C277.006 542.601 162.048 508.447 112.21 416.477C62.3727 324.507 96.5275 209.549 188.497 159.711L445.494 20.4467Z" stroke="white"/>
<path d="M424.197 89.0404C426.868 87.5932 430.206 88.585 431.653 91.2557L606.891 414.637C608.338 417.307 607.347 420.646 604.676 422.093L347.679 561.357C255.709 611.195 140.751 577.04 90.9136 485.071C41.0758 393.101 75.2306 278.143 167.2 228.305L424.197 89.0404Z" stroke="white"/>
<path d="M439.447 37.5951C442.118 36.1479 445.456 37.1397 446.903 39.8103L622.141 363.191C623.588 365.862 622.597 369.2 619.926 370.647L362.929 509.912C270.959 559.75 156.001 525.595 106.164 433.625C56.3258 341.655 90.4806 226.698 182.45 176.86L439.447 37.5951Z" stroke="white"/>
</svg>
