<?xml version="1.0" encoding="utf-8"?>
<!-- Generator: Adobe Illustrator 28.1.0, SVG Export Plug-In . SVG Version: 6.00 Build 0)  -->
<svg version="1.1" id="Capa_1" xmlns="http://www.w3.org/2000/svg" xmlns:xlink="http://www.w3.org/1999/xlink" x="0px" y="0px"
	 viewBox="0 0 576 590" style="enable-background:new 0 0 576 590;" xml:space="preserve">
<style type="text/css">
	.st0{fill:none;stroke:url(#SVGID_1_);}
	.st1{fill:none;stroke:url(#SVGID_00000128449298427880472140000001329804582338488968_);}
	.st2{fill:none;stroke:url(#SVGID_00000145025838337382659850000006330841676553102740_);}
	.st3{fill:none;stroke:url(#SVGID_00000140008007397500043960000004600222694288227516_);}
	.st4{fill:none;stroke:url(#SVGID_00000070825949059635108740000011497270531827858083_);}
	.st5{fill:none;stroke:url(#SVGID_00000075860232481779528230000002576423045336922256_);}
</style>
<linearGradient id="SVGID_1_" gradientUnits="userSpaceOnUse" x1="469.9154" y1="435.5891" x2="40.6772" y2="202.9881" gradientTransform="matrix(1 0 0 -1 0 654)">
	<stop  offset="0" style="stop-color:#00BF9B"/>
	<stop  offset="1" style="stop-color:#0077C8"/>
</linearGradient>
<path class="st0" d="M374.4,54.7c2.7-1.4,6-0.5,7.5,2.2l175.2,323.4c1.4,2.7,0.5,6-2.2,7.5l-257,139.3
	c-92,49.8-206.9,15.7-256.8-76.3c-49.8-92-15.7-206.9,76.3-256.8L374.4,54.7z"/>
<linearGradient id="SVGID_00000049185692927172789530000009264372015621127809_" gradientUnits="userSpaceOnUse" x1="485.1575" y1="487.0342" x2="55.9197" y2="254.4333" gradientTransform="matrix(1 0 0 -1 0 654)">
	<stop  offset="0" style="stop-color:#00BF9B"/>
	<stop  offset="1" style="stop-color:#0077C8"/>
</linearGradient>
<path style="fill:none;stroke:url(#SVGID_00000049185692927172789530000009264372015621127809_);" d="M389.6,3.3
	c2.7-1.4,6-0.5,7.5,2.2l175.2,323.4c1.4,2.7,0.5,6-2.2,7.5l-257,139.3c-92,49.8-206.9,15.7-256.8-76.3
	c-49.8-92-15.7-206.9,76.3-256.8L389.6,3.3z"/>
<linearGradient id="SVGID_00000064354008718183356440000013166924313440155281_" gradientUnits="userSpaceOnUse" x1="464.7673" y1="418.4404" x2="35.5285" y2="185.8402" gradientTransform="matrix(1 0 0 -1 0 654)">
	<stop  offset="0" style="stop-color:#00BF9B"/>
	<stop  offset="1" style="stop-color:#0077C8"/>
</linearGradient>
<path style="fill:none;stroke:url(#SVGID_00000064354008718183356440000013166924313440155281_);" d="M369.3,71.9
	c2.7-1.4,6-0.5,7.5,2.2l175.2,323.4c1.4,2.7,0.5,6-2.2,7.5l-257,139.3C200.8,594,85.8,559.9,36,467.9
	c-49.8-92-15.7-206.9,76.3-256.8L369.3,71.9z"/>
<linearGradient id="SVGID_00000153698158393909450680000012834619093933234591_" gradientUnits="userSpaceOnUse" x1="480.0086" y1="469.8858" x2="50.7704" y2="237.2848" gradientTransform="matrix(1 0 0 -1 0 654)">
	<stop  offset="0" style="stop-color:#00BF9B"/>
	<stop  offset="1" style="stop-color:#0077C8"/>
</linearGradient>
<path style="fill:none;stroke:url(#SVGID_00000153698158393909450680000012834619093933234591_);" d="M384.5,20.4
	c2.7-1.4,6-0.5,7.5,2.2L567.2,346c1.4,2.7,0.5,6-2.2,7.5L308,492.8c-92,49.8-206.9,15.7-256.8-76.3c-49.8-92-15.7-206.9,76.3-256.8
	L384.5,20.4z"/>
<linearGradient id="SVGID_00000121263815914293243940000013488648814928738193_" gradientUnits="userSpaceOnUse" x1="458.7116" y1="401.2919" x2="29.4738" y2="168.6911" gradientTransform="matrix(1 0 0 -1 0 654)">
	<stop  offset="0" style="stop-color:#00BF9B"/>
	<stop  offset="1" style="stop-color:#0077C8"/>
</linearGradient>
<path style="fill:none;stroke:url(#SVGID_00000121263815914293243940000013488648814928738193_);" d="M363.2,89
	c2.7-1.4,6-0.5,7.5,2.2l175.2,323.4c1.4,2.7,0.5,6-2.2,7.5l-257,139.3c-92,49.8-206.9,15.7-256.8-76.3
	c-49.8-92-15.7-206.9,76.3-256.8L363.2,89z"/>
<linearGradient id="SVGID_00000103226832208325153070000018115482673933204402_" gradientUnits="userSpaceOnUse" x1="473.9622" y1="452.7374" x2="44.7241" y2="220.1373" gradientTransform="matrix(1 0 0 -1 0 654)">
	<stop  offset="0" style="stop-color:#00BF9B"/>
	<stop  offset="1" style="stop-color:#0077C8"/>
</linearGradient>
<path style="fill:none;stroke:url(#SVGID_00000103226832208325153070000018115482673933204402_);" d="M378.4,37.6
	c2.7-1.4,6-0.5,7.5,2.2l175.2,323.4c1.4,2.7,0.5,6-2.2,7.5l-257,139.3C210,559.8,95,525.6,45.2,433.6
	c-49.8-92-15.7-206.9,76.3-256.8L378.4,37.6z"/>
</svg>
