<?xml version="1.0" encoding="utf-8"?>
<!-- Generator: Adobe Illustrator 28.1.0, SVG Export Plug-In . SVG Version: 6.00 Build 0)  -->
<svg version="1.1" id="Capa_1" xmlns="http://www.w3.org/2000/svg" xmlns:xlink="http://www.w3.org/1999/xlink" x="0px" y="0px"
	 viewBox="0 0 455 142" style="enable-background:new 0 0 455 142;" xml:space="preserve">
<style type="text/css">
	.st0{fill:none;stroke:url(#SVGID_1_);}
	.st1{fill:none;stroke:url(#SVGID_00000062188885920419465360000006773468287906921370_);}
	.st2{fill:none;stroke:url(#SVGID_00000163038951544508043270000013828814776166410923_);}
	.st3{fill:none;stroke:url(#SVGID_00000065033788044247749200000003537421226007802291_);}
	.st4{fill:none;stroke:url(#SVGID_00000007415177113520822160000001047995631597106055_);}
	.st5{fill:none;stroke:url(#SVGID_00000000940315468568983080000018043756193975381427_);}
</style>
<linearGradient id="SVGID_1_" gradientUnits="userSpaceOnUse" x1="416.9744" y1="196.3815" x2="-12.3457" y2="429.0269" gradientTransform="matrix(1 0 0 1 0 -426)">
	<stop  offset="0" style="stop-color:#00BF9B"/>
	<stop  offset="1" style="stop-color:#0077C8"/>
</linearGradient>
<path class="st0" d="M321.4-393.3c2.7-1.4,6-0.5,7.5,2.2L504.1-67.7c1.4,2.7,0.5,6-2.2,7.5l-257,139.3C152.9,128.9,38,94.8-11.9,2.8
	c-49.8-92-15.7-206.9,76.3-256.8L321.4-393.3z"/>
<linearGradient id="SVGID_00000021086190760209233590000004532184973297195678_" gradientUnits="userSpaceOnUse" x1="432.1744" y1="144.9816" x2="2.8543" y2="377.627" gradientTransform="matrix(1 0 0 1 0 -426)">
	<stop  offset="0" style="stop-color:#00BF9B"/>
	<stop  offset="1" style="stop-color:#0077C8"/>
</linearGradient>
<path style="fill:none;stroke:url(#SVGID_00000021086190760209233590000004532184973297195678_);" d="M336.6-444.7
	c2.7-1.4,6-0.5,7.5,2.2l175.2,323.4c1.4,2.7,0.5,6-2.2,7.5l-257,139.3C168.1,77.5,53.2,43.4,3.3-48.6
	c-49.8-92-15.7-206.9,76.3-256.8L336.6-444.7z"/>
<linearGradient id="SVGID_00000013889963577188514010000014120167603146726841_" gradientUnits="userSpaceOnUse" x1="411.8604" y1="213.5566" x2="-17.4179" y2="446.1783" gradientTransform="matrix(1 0 0 1 0 -426)">
	<stop  offset="0" style="stop-color:#00BF9B"/>
	<stop  offset="1" style="stop-color:#0077C8"/>
</linearGradient>
<path style="fill:none;stroke:url(#SVGID_00000013889963577188514010000014120167603146726841_);" d="M316.3-376.1
	c2.7-1.4,6-0.5,7.5,2.2L499-50.5c1.4,2.7,0.5,6-2.2,7.5l-257,139.3c-92,49.7-207,15.6-256.8-76.4S-32.7-187,59.3-236.9L316.3-376.1z
	"/>
<linearGradient id="SVGID_00000173152142016498138520000008394922004342961286_" gradientUnits="userSpaceOnUse" x1="427.0744" y1="162.0815" x2="-2.2457" y2="394.727" gradientTransform="matrix(1 0 0 1 0 -426)">
	<stop  offset="0" style="stop-color:#00BF9B"/>
	<stop  offset="1" style="stop-color:#0077C8"/>
</linearGradient>
<path style="fill:none;stroke:url(#SVGID_00000173152142016498138520000008394922004342961286_);" d="M331.5-427.6
	c2.7-1.4,6-0.5,7.5,2.2L514.2-102c1.4,2.7,0.5,6-2.2,7.5L255,44.8C163,94.6,48.1,60.5-1.8-31.5c-49.8-92-15.7-206.9,76.3-256.8
	L331.5-427.6z"/>
<linearGradient id="SVGID_00000029035177351954324690000005395722974070154636_" gradientUnits="userSpaceOnUse" x1="405.7744" y1="230.6815" x2="-23.5457" y2="463.3269" gradientTransform="matrix(1 0 0 1 0 -426)">
	<stop  offset="0" style="stop-color:#00BF9B"/>
	<stop  offset="1" style="stop-color:#0077C8"/>
</linearGradient>
<path style="fill:none;stroke:url(#SVGID_00000029035177351954324690000005395722974070154636_);" d="M310.2-359
	c2.7-1.4,6-0.5,7.5,2.2L492.9-33.4c1.4,2.7,0.5,6-2.2,7.5l-257,139.3c-92,49.8-206.9,15.7-256.8-76.3
	c-49.8-92-15.7-206.9,76.3-256.8L310.2-359z"/>
<linearGradient id="SVGID_00000093150552024919013580000007525835069483429001_" gradientUnits="userSpaceOnUse" x1="420.9718" y1="179.2774" x2="-8.2292" y2="411.8574" gradientTransform="matrix(1 0 0 1 0 -426)">
	<stop  offset="0" style="stop-color:#00BF9B"/>
	<stop  offset="1" style="stop-color:#0077C8"/>
</linearGradient>
<path style="fill:none;stroke:url(#SVGID_00000093150552024919013580000007525835069483429001_);" d="M325.4-410.4
	c2.7-1.4,6-0.5,7.5,2.2L508.1-84.8c1.4,2.7,0.5,6-2.2,7.5L248.9,62C157,111.8,42,77.6-7.8-14.4s-15.7-206.9,76.3-256.8L325.4-410.4z
	"/>
</svg>
