<?xml version="1.0" encoding="utf-8"?>
<!-- Generator: Adobe Illustrator 28.1.0, SVG Export Plug-In . SVG Version: 6.00 Build 0)  -->
<svg version="1.1" id="Capa_1" xmlns="http://www.w3.org/2000/svg" xmlns:xlink="http://www.w3.org/1999/xlink" x="0px" y="0px"
	 viewBox="0 0 687 682" style="enable-background:new 0 0 687 682;" xml:space="preserve">
<style type="text/css">
	.st0{fill:none;stroke:url(#SVGID_1_);}
	.st1{fill:none;stroke:url(#SVGID_00000157295117787779429740000016232329042119720614_);}
	.st2{fill:none;stroke:url(#SVGID_00000138549708533523008070000014550152519580269185_);}
	.st3{fill:none;stroke:url(#SVGID_00000017512575314899935610000007683593306174793642_);}
	.st4{fill:none;stroke:url(#SVGID_00000125589016679177559670000012903186470105550778_);}
	.st5{fill:none;stroke:url(#SVGID_00000052819841836203566470000013835400854630944399_);}
</style>
<linearGradient id="SVGID_1_" gradientUnits="userSpaceOnUse" x1="396.8121" y1="233.2606" x2="-24.5438" y2="550.3506" gradientTransform="matrix(1 0 0 -1 0 776)">
	<stop  offset="0" style="stop-color:#00B0E3"/>
	<stop  offset="1" style="stop-color:#8EDD65"/>
</linearGradient>
<path class="st0" d="M150.7,758.1c-2.2,2.1-5.6,2-7.7-0.3l-313.9-344.6c-2-2.2-1.9-5.8,0.3-7.9l286.5-275.8
	c79.4-76.4,203.9-72.3,278.1,9.2l52.6,57.8c74.2,81.5,70,209.4-9.4,285.8L150.7,758.1z"/>
<linearGradient id="SVGID_00000150783921590556951490000004938631804082665887_" gradientUnits="userSpaceOnUse" x1="395.2183" y1="165.4168" x2="-26.1377" y2="482.5068" gradientTransform="matrix(1 0 0 -1 0 776)">
	<stop  offset="0" style="stop-color:#00B0E3"/>
	<stop  offset="1" style="stop-color:#8EDD65"/>
</linearGradient>
<path style="fill:none;stroke:url(#SVGID_00000150783921590556951490000004938631804082665887_);" d="M149.1,825.9
	c-2.2,2.1-5.6,2-7.7-0.3l-313.9-344.6c-2-2.2-1.9-5.8,0.3-7.9l286.5-275.8c79.4-76.4,203.9-72.3,278.1,9.2l52.6,57.8
	c74.2,81.5,70,209.4-9.4,285.8L149.1,825.9z"/>
<linearGradient id="SVGID_00000000204325533031046210000013115377668408416655_" gradientUnits="userSpaceOnUse" x1="397.4292" y1="255.8929" x2="-23.9268" y2="572.9833" gradientTransform="matrix(1 0 0 -1 0 776)">
	<stop  offset="0" style="stop-color:#00B0E3"/>
	<stop  offset="1" style="stop-color:#8EDD65"/>
</linearGradient>
<path style="fill:none;stroke:url(#SVGID_00000000204325533031046210000013115377668408416655_);" d="M151.3,735.5
	c-2.2,2.1-5.6,2-7.7-0.3l-313.9-344.6c-2-2.2-1.9-5.8,0.3-7.9L116.5,107c79.4-76.4,203.9-72.3,278.1,9.2l52.6,57.8
	c74.2,81.5,70,209.4-9.4,285.8L151.3,735.5z"/>
<linearGradient id="SVGID_00000095307292574580893150000011056898271491593877_" gradientUnits="userSpaceOnUse" x1="395.8286" y1="188.0567" x2="-25.5284" y2="505.1467" gradientTransform="matrix(1 0 0 -1 0 776)">
	<stop  offset="0" style="stop-color:#00B0E3"/>
	<stop  offset="1" style="stop-color:#8EDD65"/>
</linearGradient>
<path style="fill:none;stroke:url(#SVGID_00000095307292574580893150000011056898271491593877_);" d="M149.7,803.3
	c-2.2,2.1-5.6,2-7.7-0.3l-313.9-344.6c-2-2.2-1.9-5.8,0.3-7.9l286.5-275.8c79.4-76.4,203.9-72.3,278.1,9.2l52.6,57.8
	c74.2,81.5,70,209.4-9.4,285.8L149.7,803.3z"/>
<linearGradient id="SVGID_00000136387357567744780290000007683844713887754420_" gradientUnits="userSpaceOnUse" x1="399.1092" y1="278.8147" x2="-22.2469" y2="595.9049" gradientTransform="matrix(1 0 0 -1 0 776)">
	<stop  offset="0" style="stop-color:#00B0E3"/>
	<stop  offset="1" style="stop-color:#8EDD65"/>
</linearGradient>
<path style="fill:none;stroke:url(#SVGID_00000136387357567744780290000007683844713887754420_);" d="M152.9,712.5
	c-2.2,2.1-5.6,2-7.7-0.3l-313.9-344.6c-2-2.2-1.9-5.8,0.3-7.9L118.2,84c79.4-76.4,203.9-72.3,278.1,9.2l52.6,57.8
	c74.2,81.5,70,209.4-9.4,285.8L152.9,712.5z"/>
<linearGradient id="SVGID_00000163050123586705416760000006249967315448847039_" gradientUnits="userSpaceOnUse" x1="397.5153" y1="210.9711" x2="-23.8407" y2="528.0601" gradientTransform="matrix(1 0 0 -1 0 776)">
	<stop  offset="0" style="stop-color:#00B0E3"/>
	<stop  offset="1" style="stop-color:#8EDD65"/>
</linearGradient>
<path style="fill:none;stroke:url(#SVGID_00000163050123586705416760000006249967315448847039_);" d="M151.4,780.4
	c-2.2,2.1-5.6,2-7.7-0.3l-313.9-344.6c-2-2.2-1.9-5.8,0.3-7.9l286.5-275.8C196,75.5,320.5,79.6,394.7,161l52.6,57.8
	c74.2,81.5,70,209.4-9.4,285.8L151.4,780.4z"/>
</svg>
