<?xml version="1.0" encoding="utf-8"?>
<!-- Generator: Adobe Illustrator 28.1.0, SVG Export Plug-In . SVG Version: 6.00 Build 0)  -->
<svg version="1.1" id="Capa_1" xmlns="http://www.w3.org/2000/svg" xmlns:xlink="http://www.w3.org/1999/xlink" x="0px" y="0px"
	 viewBox="0 0 321 230" style="enable-background:new 0 0 321 230;" xml:space="preserve">
<style type="text/css">
	.st0{fill:none;stroke:url(#SVGID_1_);}
	.st1{fill:none;stroke:url(#SVGID_00000152225826785143402280000013508356803426608535_);}
	.st2{fill:none;stroke:url(#SVGID_00000160159031870213003210000005841347369893372035_);}
	.st3{fill:none;stroke:url(#SVGID_00000019676093178735732550000007540952191163956876_);}
	.st4{fill:none;stroke:url(#SVGID_00000141427414529541129510000015452678668767705731_);}
	.st5{fill:none;stroke:url(#SVGID_00000134963434975476709270000005473899161301654657_);}
</style>
<linearGradient id="SVGID_1_" gradientUnits="userSpaceOnUse" x1="432.9744" y1="636.3815" x2="3.6543" y2="869.027" gradientTransform="matrix(1 0 0 1 0 -426)">
	<stop  offset="0" style="stop-color:#00BF9B"/>
	<stop  offset="1" style="stop-color:#0077C8"/>
</linearGradient>
<path class="st0" d="M337.4,46.7c2.7-1.4,6-0.5,7.5,2.2l175.2,323.4c1.4,2.7,0.5,6-2.2,7.5l-257,139.3
	c-92,49.8-206.9,15.7-256.8-76.3c-49.8-92-15.7-206.9,76.3-256.8L337.4,46.7z"/>
<linearGradient id="SVGID_00000002344669982355889340000000540623649983357572_" gradientUnits="userSpaceOnUse" x1="448.1744" y1="584.9816" x2="18.8543" y2="817.627" gradientTransform="matrix(1 0 0 1 0 -426)">
	<stop  offset="0" style="stop-color:#00BF9B"/>
	<stop  offset="1" style="stop-color:#0077C8"/>
</linearGradient>
<path style="fill:none;stroke:url(#SVGID_00000002344669982355889340000000540623649983357572_);" d="M352.6-4.7
	c2.7-1.4,6-0.5,7.5,2.2l175.2,323.4c1.4,2.7,0.5,6-2.2,7.5l-257,139.3c-92,49.8-206.9,15.7-256.8-76.3
	c-49.8-92-15.7-206.9,76.3-256.8L352.6-4.7z"/>
<linearGradient id="SVGID_00000100356116063259363190000012393531908871656112_" gradientUnits="userSpaceOnUse" x1="427.8604" y1="653.5566" x2="-1.4179" y2="886.1782" gradientTransform="matrix(1 0 0 1 0 -426)">
	<stop  offset="0" style="stop-color:#00BF9B"/>
	<stop  offset="1" style="stop-color:#0077C8"/>
</linearGradient>
<path style="fill:none;stroke:url(#SVGID_00000100356116063259363190000012393531908871656112_);" d="M332.3,63.9
	c2.7-1.4,6-0.5,7.5,2.2L515,389.5c1.4,2.7,0.5,6-2.2,7.5l-257,139.3c-92,49.7-207,15.6-256.8-76.4S-16.7,253,75.3,203.1L332.3,63.9z
	"/>
<linearGradient id="SVGID_00000158737797320996367370000005317715445035294112_" gradientUnits="userSpaceOnUse" x1="443.0744" y1="602.0815" x2="13.7543" y2="834.727" gradientTransform="matrix(1 0 0 1 0 -426)">
	<stop  offset="0" style="stop-color:#00BF9B"/>
	<stop  offset="1" style="stop-color:#0077C8"/>
</linearGradient>
<path style="fill:none;stroke:url(#SVGID_00000158737797320996367370000005317715445035294112_);" d="M347.5,12.4
	c2.7-1.4,6-0.5,7.5,2.2L530.2,338c1.4,2.7,0.5,6-2.2,7.5L271,484.8c-92,49.8-206.9,15.7-256.8-76.3c-49.8-92-15.7-206.9,76.3-256.8
	L347.5,12.4z"/>
<linearGradient id="SVGID_00000120538417998856587870000001068127386868364170_" gradientUnits="userSpaceOnUse" x1="421.7744" y1="670.6815" x2="-7.5457" y2="903.327" gradientTransform="matrix(1 0 0 1 0 -426)">
	<stop  offset="0" style="stop-color:#00BF9B"/>
	<stop  offset="1" style="stop-color:#0077C8"/>
</linearGradient>
<path style="fill:none;stroke:url(#SVGID_00000120538417998856587870000001068127386868364170_);" d="M326.2,81
	c2.7-1.4,6-0.5,7.5,2.2l175.2,323.4c1.4,2.7,0.5,6-2.2,7.5l-257,139.3c-92,49.8-206.9,15.7-256.8-76.3
	c-49.8-92-15.7-206.9,76.3-256.8L326.2,81z"/>
<linearGradient id="SVGID_00000080891022574926577660000004243519337398094994_" gradientUnits="userSpaceOnUse" x1="436.9718" y1="619.2774" x2="7.7708" y2="851.8574" gradientTransform="matrix(1 0 0 1 0 -426)">
	<stop  offset="0" style="stop-color:#00BF9B"/>
	<stop  offset="1" style="stop-color:#0077C8"/>
</linearGradient>
<path style="fill:none;stroke:url(#SVGID_00000080891022574926577660000004243519337398094994_);" d="M341.4,29.6
	c2.7-1.4,6-0.5,7.5,2.2l175.2,323.4c1.4,2.7,0.5,6-2.2,7.5L264.9,502C173,551.8,58,517.6,8.2,425.6S-7.5,218.7,84.5,168.8
	L341.4,29.6z"/>
</svg>
