<svg width="43" height="43" viewBox="0 0 43 43" fill="none" xmlns="http://www.w3.org/2000/svg">
<path d="M39.4156 34.4004H35.1161C33.1384 34.4004 31.5332 36.0055 31.5332 37.9833V39.4165C31.5332 41.3942 33.1384 42.9994 35.1161 42.9994H39.4156C41.3934 42.9994 42.9985 41.3942 42.9985 39.4165V37.9833C42.9985 36.0055 41.3934 34.4004 39.4156 34.4004ZM40.1322 39.4165C40.1322 39.8178 39.8169 40.1331 39.4156 40.1331H35.1161C34.7148 40.1331 34.3995 39.8178 34.3995 39.4165V37.9833C34.3995 37.582 34.7148 37.2667 35.1161 37.2667H39.4156C39.8169 37.2667 40.1322 37.582 40.1322 37.9833V39.4165Z" fill="white"/>
<path d="M23.651 34.4004H19.3515C17.3737 34.4004 15.7686 36.0055 15.7686 37.9833V39.4165C15.7686 41.3942 17.3737 42.9994 19.3515 42.9994H23.651C25.6287 42.9994 27.2339 41.3942 27.2339 39.4165V37.9833C27.2339 36.0055 25.6287 34.4004 23.651 34.4004ZM24.3676 39.4165C24.3676 39.8178 24.0523 40.1331 23.651 40.1331H19.3515C18.9502 40.1331 18.6349 39.8178 18.6349 39.4165V37.9833C18.6349 37.582 18.9502 37.2667 19.3515 37.2667H23.651C24.0523 37.2667 24.3676 37.582 24.3676 37.9833V39.4165Z" fill="white"/>
<path d="M7.88633 34.4004H3.58682C1.60905 34.4004 0.00390625 36.0055 0.00390625 37.9833V39.4165C0.00390625 41.3942 1.60905 42.9994 3.58682 42.9994H7.88633C9.8641 42.9994 11.4692 41.3942 11.4692 39.4165V37.9833C11.4692 36.0055 9.8641 34.4004 7.88633 34.4004ZM8.60291 39.4165C8.60291 39.8178 8.28761 40.1331 7.88633 40.1331H3.58682C3.18554 40.1331 2.87024 39.8178 2.87024 39.4165V37.9833C2.87024 37.582 3.18554 37.2667 3.58682 37.2667H7.88633C8.28761 37.2667 8.60291 37.582 8.60291 37.9833V39.4165Z" fill="white"/>
<path d="M5.73688 32.9673C6.52512 32.9673 7.17005 32.3224 7.17005 31.5341V30.101H20.0685V31.5341C20.0685 32.3224 20.7135 32.9673 21.5017 32.9673C22.29 32.9673 22.9349 32.3224 22.9349 31.5341V30.101H35.8334V31.5341C35.8334 32.3224 36.4783 32.9673 37.2666 32.9673C38.0548 32.9673 38.6997 32.3224 38.6997 31.5341V30.101C38.6997 28.5245 37.4099 27.2346 35.8334 27.2346H22.9349V24.3683H24.368C25.1563 24.3683 25.8012 23.7234 25.8012 22.9351C25.8012 22.1469 25.1563 21.502 24.368 21.502H18.6354C17.8471 21.502 17.2022 22.1469 17.2022 22.9351C17.2022 23.7234 17.8471 24.3683 18.6354 24.3683H20.0685V27.2346H7.17005C5.59356 27.2346 4.30371 28.5245 4.30371 30.101V31.5341C4.30371 32.3224 4.94864 32.9673 5.73688 32.9673Z" fill="white"/>
<path d="M26.9189 1.92542C24.8981 0.277281 22.2611 -0.353312 19.667 0.191291C16.3278 0.879211 13.6621 3.61656 13.0458 6.99884C12.5299 9.77918 13.3754 12.5309 15.3389 14.5516C15.6112 14.8383 15.7688 15.1966 15.7688 15.5692V18.6218C15.7688 19.4101 16.4137 20.055 17.202 20.055H25.801C26.5892 20.055 27.2342 19.4101 27.2342 18.6218V15.5692C27.2342 15.1966 27.3775 14.8526 27.6498 14.566C29.2263 12.9465 30.1005 10.8254 30.1005 8.58965C30.1005 5.99562 28.9396 3.55923 26.9189 1.91109V1.92542ZM25.0414 7.93039L21.9458 11.2267C21.6735 11.5133 21.3008 11.6853 20.8996 11.6853C20.4983 11.6853 20.1256 11.5276 19.8533 11.2267L17.9329 9.16292C17.3883 8.58965 17.417 7.67242 18.0046 7.14215C18.5922 6.61188 19.495 6.62621 20.0253 7.21381L20.9139 8.1597L22.9633 5.98129C23.5079 5.40802 24.4108 5.37936 24.9841 5.90963C25.5573 6.45423 25.586 7.35713 25.0557 7.93039H25.0414Z" fill="#00BFB3"/>
<path d="M35.1162 7.16992H33.9839C33.1957 7.16992 32.5508 7.81485 32.5508 8.60309C32.5508 9.39133 33.1957 10.0363 33.9839 10.0363H35.1162C35.9044 10.0363 36.5493 9.39133 36.5493 8.60309C36.5493 7.81485 35.9044 7.16992 35.1162 7.16992Z" fill="#00BFB3"/>
<path d="M32.8809 4.56199C32.9956 4.56199 33.1102 4.56199 33.2249 4.51899L34.3141 4.26102C35.088 4.07471 35.561 3.3008 35.3746 2.52689C35.1883 1.75298 34.4144 1.28003 33.6405 1.46635L32.5513 1.72432C31.7774 1.91063 31.3044 2.68454 31.4908 3.45845C31.6484 4.1177 32.236 4.54765 32.8809 4.54765V4.56199Z" fill="#00BFB3"/>
<path d="M34.3141 12.947L33.2249 12.689C32.4653 12.5027 31.6771 12.9756 31.4908 13.7495C31.3044 14.5235 31.7774 15.2974 32.5513 15.4837L33.6405 15.7416C33.7552 15.7703 33.8698 15.7846 33.9845 15.7846C34.6294 15.7846 35.217 15.3404 35.3746 14.6954C35.561 13.9215 35.088 13.1476 34.3141 12.9613V12.947Z" fill="#00BFB3"/>
<path d="M9.01849 10.0363C9.80674 10.0363 10.4517 9.39133 10.4517 8.60309C10.4517 7.81485 9.80674 7.16992 9.01849 7.16992H7.88629C7.09805 7.16992 6.45312 7.81485 6.45312 8.60309C6.45312 9.39133 7.09805 10.0363 7.88629 10.0363H9.01849Z" fill="#00BFB3"/>
<path d="M10.4518 1.73994L9.36259 1.48197C8.60301 1.29566 7.81477 1.7686 7.62845 2.54251C7.44214 3.31642 7.91509 4.09033 8.689 4.27665L9.77821 4.53462C9.89286 4.56328 10.0075 4.57761 10.1222 4.57761C10.7671 4.57761 11.3547 4.13333 11.5123 3.4884C11.6986 2.71449 11.2257 1.94058 10.4518 1.75427V1.73994Z" fill="#00BFB3"/>
<path d="M9.77821 12.674L8.689 12.932C7.91509 13.1183 7.44214 13.8922 7.62845 14.6661C7.7861 15.3254 8.3737 15.7553 9.01863 15.7553C9.13328 15.7553 9.24793 15.7553 9.36259 15.7124L10.4518 15.4544C11.2257 15.2681 11.6986 14.4942 11.5123 13.7202C11.326 12.9463 10.5521 12.4734 9.77821 12.6597V12.674Z" fill="#00BFB3"/>
</svg>
