<svg width="43" height="43" viewBox="0 0 43 43" fill="none" xmlns="http://www.w3.org/2000/svg">
<path d="M41.5218 20.9088C37.4099 12.5775 29.7371 7.39062 21.4999 7.39062C13.2627 7.39062 5.58988 12.5641 1.47801 20.9088C1.28988 21.285 1.28988 21.7284 1.47801 22.0913C5.58988 30.4225 13.2627 35.6094 21.4999 35.6094C29.7371 35.6094 37.4099 30.4359 41.5218 22.0913C41.7099 21.715 41.7099 21.2716 41.5218 20.9088ZM21.4999 32.9219C14.4855 32.9219 7.91457 28.5681 4.19238 21.5C7.91457 14.4319 14.4855 10.0781 21.4999 10.0781C28.5143 10.0781 35.0852 14.4319 38.8074 21.5C35.0852 28.5681 28.5143 32.9219 21.4999 32.9219Z" fill="#2D373F"/>
<path d="M21.5 5.375C22.2391 5.375 22.8438 4.77031 22.8438 4.03125V2.6875C22.8438 1.94844 22.2391 1.34375 21.5 1.34375C20.7609 1.34375 20.1562 1.94844 20.1562 2.6875V4.03125C20.1562 4.77031 20.7609 5.375 21.5 5.375Z" fill="#2D373F"/>
<path d="M11.2199 6.00708C11.4886 6.35645 11.8917 6.54458 12.2949 6.54458C12.577 6.54458 12.8592 6.45052 13.1011 6.27583C13.6924 5.83239 13.8133 4.98583 13.3699 4.39458L12.4964 3.22552C12.053 2.63427 11.2064 2.51333 10.6152 2.95677C10.0239 3.40021 9.90298 4.24677 10.3464 4.83802L11.2199 6.00708Z" fill="#2D373F"/>
<path d="M30.7046 6.54458C31.1077 6.54458 31.5109 6.35645 31.7796 6.00708L32.6531 4.83802C33.0965 4.24677 32.9756 3.40021 32.3843 2.95677C31.7931 2.51333 30.9465 2.63427 30.5031 3.22552L29.6296 4.39458C29.1862 4.98583 29.3071 5.83239 29.8984 6.27583C30.1402 6.46396 30.4224 6.54458 30.7046 6.54458Z" fill="#2D373F"/>
<path d="M21.5 37.625C20.7609 37.625 20.1562 38.2297 20.1562 38.9688V40.3125C20.1562 41.0516 20.7609 41.6562 21.5 41.6562C22.2391 41.6562 22.8438 41.0516 22.8438 40.3125V38.9688C22.8438 38.2297 22.2391 37.625 21.5 37.625Z" fill="#2D373F"/>
<path d="M11.2199 36.9931L10.3464 38.1622C9.90298 38.7534 10.0239 39.6 10.6152 40.0434C10.857 40.2315 11.1392 40.3122 11.4214 40.3122C11.8245 40.3122 12.2277 40.124 12.4964 39.7747L13.3699 38.6056C13.8133 38.0143 13.6924 37.1678 13.1011 36.7243C12.5099 36.2809 11.6633 36.4018 11.2199 36.9931Z" fill="#2D373F"/>
<path d="M31.7796 36.9931C31.3362 36.4018 30.4896 36.2809 29.8984 36.7243C29.3071 37.1678 29.1862 38.0143 29.6296 38.6056L30.5031 39.7747C30.7718 40.124 31.1749 40.3122 31.5781 40.3122C31.8602 40.3122 32.1424 40.2181 32.3843 40.0434C32.9756 39.6 33.0965 38.7534 32.6531 38.1622L31.7796 36.9931Z" fill="#2D373F"/>
<path d="M21.5 12.0938C16.3131 12.0938 12.0938 16.3131 12.0938 21.5C12.0938 26.6869 16.3131 30.9062 21.5 30.9062C26.6869 30.9062 30.9062 26.6869 30.9062 21.5C30.9062 16.3131 26.6869 12.0938 21.5 12.0938ZM24.7519 24.7519C24.4831 25.0206 24.1472 25.1416 23.7978 25.1416C23.4484 25.1416 23.1125 25.0072 22.8438 24.7519L20.5459 22.4541C20.2906 22.1987 20.1562 21.8628 20.1562 21.5V18.0466C20.1562 17.3075 20.7609 16.7028 21.5 16.7028C22.2391 16.7028 22.8438 17.3075 22.8438 18.0466V20.9491L24.7519 22.8572C25.2759 23.3813 25.2759 24.2278 24.7519 24.7519Z" fill="#00BFB3"/>
</svg>
