<svg width="43" height="43" viewBox="0 0 43 43" fill="none" xmlns="http://www.w3.org/2000/svg">
<path d="M22.0241 13.4375H20.1562C19.4172 13.4375 18.8125 14.0422 18.8125 14.7812C18.8125 15.5203 19.4172 16.125 20.1562 16.125H22.0241C23.5022 16.125 24.7116 17.3344 24.7116 18.8125V24.08C24.7116 25.5581 23.5022 26.7675 22.0241 26.7675H5.375C3.15781 26.7675 1.34375 28.5816 1.34375 30.7987V34.9375C1.34375 37.1547 3.15781 38.9688 5.375 38.9688H22.1719C22.9109 38.9688 23.5156 38.3641 23.5156 37.625C23.5156 36.8859 22.9109 36.2812 22.1719 36.2812H5.375C4.63594 36.2812 4.03125 35.6766 4.03125 34.9375V30.7987C4.03125 30.0597 4.63594 29.455 5.375 29.455H22.0241C24.9937 29.455 27.3991 27.0497 27.3991 24.08V18.8125C27.3991 15.8428 24.9937 13.4375 22.0241 13.4375Z" fill="#2D373F"/>
<path d="M4.70312 20.1562H14.1094C15.9637 20.1562 17.4688 18.6513 17.4688 16.7969V14.7812C17.4688 12.1341 16.1787 9.70187 14.0287 8.21031C14.0691 7.94156 14.1094 7.67281 14.1094 7.39062V5.375C14.1094 3.15781 12.2953 1.34375 10.0781 1.34375H8.73438C6.51719 1.34375 4.70312 3.15781 4.70312 5.375V7.39062C4.70312 7.67281 4.74344 7.94156 4.78375 8.21031C2.63375 9.70187 1.34375 12.1341 1.34375 14.7812V16.7969C1.34375 18.6513 2.84875 20.1562 4.70312 20.1562ZM7.39062 5.375C7.39062 4.63594 7.99531 4.03125 8.73438 4.03125H10.0781C10.8172 4.03125 11.4219 4.63594 11.4219 5.375V7.39062C11.4219 8.50594 10.5216 9.40625 9.40625 9.40625C8.29094 9.40625 7.39062 8.50594 7.39062 7.39062V5.375ZM4.03125 14.7812C4.03125 13.1553 4.78375 11.6503 6.03344 10.6425C6.89344 11.5294 8.08938 12.0938 9.40625 12.0938C10.7231 12.0938 11.9325 11.5294 12.7791 10.6425C14.0288 11.6503 14.7812 13.1419 14.7812 14.7812V16.7969C14.7812 17.1731 14.4856 17.4688 14.1094 17.4688H4.70312C4.32687 17.4688 4.03125 17.1731 4.03125 16.7969V14.7812Z" fill="#2D373F"/>
<path d="M34.2656 36.2812H27.5469C26.8047 36.2812 26.2031 36.8829 26.2031 37.625V40.3125C26.2031 41.0546 26.8047 41.6562 27.5469 41.6562H34.2656C35.0078 41.6562 35.6094 41.0546 35.6094 40.3125V37.625C35.6094 36.8829 35.0078 36.2812 34.2656 36.2812Z" fill="#00BFB3"/>
<path d="M40.3795 25.5312L41.5754 21.93C41.7098 21.5269 41.6426 21.07 41.3873 20.7206C41.132 20.3713 40.7288 20.1562 40.2988 20.1562H30.8926C30.1535 20.1562 29.5488 20.7609 29.5488 21.5V33.5938H32.2363V30.9062H40.2988C40.7288 30.9062 41.132 30.7047 41.3873 30.3419C41.6426 29.9925 41.7098 29.5356 41.5754 29.1325L40.3795 25.5312Z" fill="#00BFB3"/>
</svg>
