<svg width="43" height="43" viewBox="0 0 43 43" fill="none" xmlns="http://www.w3.org/2000/svg">
<path d="M36.1371 17.5763C36.0162 11.7309 31.5012 6.96063 25.8037 6.35594V6.04688C25.8037 3.45344 23.694 1.34375 21.1005 1.34375H19.0849C18.3458 1.34375 17.7412 1.94844 17.7412 2.6875V6.7725L16.3974 7.24281C13.9652 8.08938 12.2587 10.2528 11.9362 12.7522L6.10428 15.6547C5.58021 15.9234 5.28459 16.5013 5.37865 17.0791L5.71459 19.1081C5.99678 20.7609 6.99115 22.1584 8.46928 22.9513C9.9474 23.7441 11.6674 23.8112 13.1993 23.1394L15.309 22.1988V24.6713L12.8902 26.445C11.8555 27.1975 11.2508 28.4203 11.2508 29.6969V30.8794C11.2508 31.6184 11.8555 32.2231 12.5946 32.2231C13.3337 32.2231 13.9383 31.6184 13.9383 30.8794V29.6969C13.9383 29.2669 14.1399 28.8638 14.4893 28.6084L15.3224 28.0037V28.1919C15.3224 28.9309 15.9271 29.5356 16.6662 29.5356C17.4052 29.5356 18.0099 28.9309 18.0099 28.1919V20.1294C18.0099 19.6725 17.7815 19.2559 17.4052 19.0006C17.029 18.7588 16.5452 18.7184 16.1287 18.8931L12.1243 20.6669C11.3583 21.0028 10.4983 20.9759 9.75928 20.5728C9.02021 20.1697 8.52303 19.4709 8.38865 18.6513L8.21396 17.6031L13.8443 14.7947C14.3012 14.5662 14.5833 14.0959 14.5833 13.5988C14.5833 11.8787 15.6718 10.3334 17.2977 9.76906L19.5418 8.97625C20.0793 8.78812 20.4421 8.2775 20.4421 7.71312V4.01781H21.114C22.2293 4.01781 23.1296 4.91812 23.1296 6.03344V7.61906C23.1296 7.98187 23.2774 8.31781 23.5327 8.57313C23.788 8.82844 24.1508 8.96281 24.5002 8.96281C29.3646 8.88219 33.3555 12.7791 33.463 17.6031L33.5705 25.4506C33.5705 25.8134 33.4362 26.1494 33.1808 26.4181C32.9255 26.6869 32.5896 26.8212 32.2268 26.8212H31.7296V21.4463C31.7296 20.7072 31.1249 20.1025 30.3858 20.1025C29.6468 20.1025 29.0421 20.7072 29.0421 21.4463V30.9062C29.0421 31.6453 29.6468 32.25 30.3858 32.25C31.1249 32.25 31.7296 31.6453 31.7296 30.9062V29.5087H32.2268C33.3152 29.5087 34.3365 29.0787 35.1024 28.3128C35.8683 27.5334 36.2849 26.5122 36.258 25.4237L36.1505 17.5628L36.1371 17.5763Z" fill="white"/>
<path d="M17.9429 12.1216L17.271 12.7934C16.7469 13.3175 16.7469 14.1641 17.271 14.6881C17.5397 14.9569 17.8757 15.0778 18.225 15.0778C18.5744 15.0778 18.9104 14.9434 19.1791 14.6881L19.851 14.0162C20.375 13.4922 20.375 12.6456 19.851 12.1216C19.3269 11.5975 18.4804 11.5975 17.9563 12.1216H17.9429Z" fill="white"/>
<path d="M36.2852 38.9688H34.2695V36.2812C35.0086 36.2812 35.6133 35.6766 35.6133 34.9375C35.6133 34.1984 35.0086 33.5938 34.2695 33.5938H8.73828C7.99922 33.5938 7.39453 34.1984 7.39453 34.9375C7.39453 35.6766 7.99922 36.2812 8.73828 36.2812V38.9688H6.72266C5.98359 38.9688 5.37891 39.5734 5.37891 40.3125C5.37891 41.0516 5.98359 41.6562 6.72266 41.6562H36.2852C37.0242 41.6562 37.6289 41.0516 37.6289 40.3125C37.6289 39.5734 37.0242 38.9688 36.2852 38.9688Z" fill="#00BFB3"/>
</svg>
