<svg width="203" height="70" viewBox="0 0 203 70" fill="none" xmlns="http://www.w3.org/2000/svg">
<g clip-path="url(#clip0_4614_965)" filter="url(#filter0_d_4614_965)">
<path d="M41.4113 24.5863V54.7644C41.4113 59.1206 44.1187 62 48.1817 62C52.2446 62 55.0372 59.1058 55.0372 54.7644V24.5863C55.0372 21.18 52.9409 17.4731 48.1817 17.4731C44.078 17.4731 41.4113 20.3525 41.4113 24.5863ZM35.7224 5.63265C35.7224 3.98887 35.1076 2.58998 34.0817 1.56215C32.9743 0.534323 31.415 0 29.4039 0H25.1372C19.8446 0 16.0261 1.15028 13.5224 3.57699C10.9372 6.08534 9.70761 9.90724 9.70761 15.2134L9.78909 17.4657H9.54465C7.90391 17.4657 6.42613 18 5.48168 18.9462C4.53724 19.8108 4.00391 21.1243 4.00391 22.6865C4.00391 24.2486 4.53724 25.5659 5.48168 26.5084C6.42613 27.4545 7.90391 27.9889 9.54465 27.9889H9.78909V54.7644C9.78909 59.1206 12.4558 62.0408 16.5595 62C21.5669 62 23.4113 57.9258 23.4113 54.7236V27.9481H29.815C31.5372 27.9481 32.9335 27.4137 33.9595 26.4675C34.9039 25.5213 35.4372 24.2078 35.4372 22.6456C35.4372 21.0835 34.9039 19.7662 33.9595 18.9054C32.9335 17.9592 31.5372 17.4249 29.815 17.4249H23.4113L23.3298 15.0093C23.3298 12.872 23.6595 11.6772 25.5854 11.4731C25.7891 11.4323 29.4002 11.4323 29.6484 11.4323C33.3817 11.4323 35.7224 9.21336 35.7224 5.63636M53.5595 12.9536C55.0372 11.5547 55.815 9.66605 55.815 7.56586C55.815 5.46568 55.0372 3.65863 53.5595 2.17811C52.1632 0.779221 50.278 0 48.1817 0C46.0854 0 44.2817 0.782931 42.8039 2.17811C41.4076 3.65863 40.6298 5.55102 40.6298 7.56586C40.6298 9.58071 41.4076 11.5547 42.8039 12.9536C44.2817 14.4341 46.2113 15.2134 48.1817 15.2134C50.2743 15.2134 52.1632 14.4341 53.5595 12.9536ZM103.074 54.8089C103.074 53.5881 103.074 24.9017 103.074 24.9017C103.074 19.4879 99.7039 17.4731 96.2595 17.4731C91.715 17.4731 89.4891 20.4972 89.4891 24.9017V35.436C89.4891 35.5584 89.3261 35.6401 89.2409 35.5176L77.7076 21.2505C76.1076 19.2839 74.1372 17.4694 71.0002 17.4694C67.2187 17.4694 64.2039 19.974 64.2039 24.423V54.8163C64.2039 59.1614 66.9965 61.9889 70.9743 61.9889C75.3891 61.9889 77.8261 58.6345 77.8261 54.7755V43.3024C77.8261 43.18 77.9891 43.0983 78.0706 43.2208L89.3002 57.102C92.3632 60.6642 93.5076 61.9889 96.6039 61.9889C99.7002 61.9889 103.063 59.3878 103.063 54.8015M151.278 54.8015C151.278 53.5807 151.278 24.8942 151.278 24.8942C151.278 19.4805 147.908 17.4657 144.463 17.4657C139.919 17.4657 137.693 20.4898 137.693 24.8942V35.4286C137.693 35.551 137.53 35.6327 137.445 35.5102L125.911 21.243C124.311 19.2764 122.341 17.462 119.204 17.462C115.422 17.462 112.408 19.9666 112.408 24.4156V54.8089C112.408 59.154 115.2 61.9814 119.178 61.9814C123.593 61.9814 126.03 58.6271 126.03 54.7681V43.295C126.03 43.1725 126.193 43.0909 126.274 43.2134L137.504 57.0946C140.567 60.6568 141.711 61.9814 144.808 61.9814C147.904 61.9814 151.267 59.3803 151.267 54.7941M187.363 35.1391C187.322 35.0575 187.363 34.9759 187.404 34.9351L194.748 27.9852C197.615 25.2653 197.248 21.462 194.934 19.1391C193.567 17.7699 191.774 17.1688 189.826 17.6215C188.471 17.9109 187.282 18.6494 186.052 19.7996L174.437 31.6809C174.382 31.7366 174.285 31.7143 174.234 31.6512V7.11317C174.234 3.70686 172.137 0 167.382 0C163.278 0 160.611 2.87941 160.611 7.11317V54.8052C160.611 59.3135 163.471 62 167.463 62C170.522 62 174.234 59.7848 174.234 54.7607V47.2393L177.515 43.7848C177.596 43.744 177.719 43.744 177.759 43.8256L186.419 58.3377C187.774 60.6828 189.948 61.9555 192.493 61.9963C197.778 61.9963 198.978 57.4323 198.978 55.7069C198.978 54.308 198.648 53.0761 197.952 51.9666L187.363 35.1503V35.1391Z" fill="white"/>
<path d="M64.76 35.105L55.106 21.7954C54.4792 20.9159 53.7678 19.6854 53 19.0898C54.4932 20.4541 55.1976 22.9589 55.1976 24.8841V45.2239L63.7978 57.3017C64.946 58.9084 66.7813 60.5405 68.19 61.1846C66.1262 60.0696 64.76 57.7093 64.76 54.8214V35.105Z" fill="white" fill-opacity="0.6"/>
<path d="M113.159 34.6147L103.194 21.3052C102.546 20.4257 101.812 19.1952 101.02 18.5996C102.561 19.9639 103.288 22.4687 103.288 24.3939V44.7336L112.166 56.8115C113.351 58.4181 115.245 60.0503 116.7 60.6943C114.569 59.5794 113.159 57.2191 113.159 54.3312V34.6147Z" fill="white" fill-opacity="0.6"/>
<path d="M161.4 34.6147L152.058 21.3052C151.451 20.4257 150.763 19.1952 150.02 18.5996C151.465 19.9639 152.146 22.4687 152.146 24.3939V44.7336L160.469 56.8115C161.58 58.4181 163.356 60.0503 164.72 60.6943C162.722 59.5794 161.4 57.2191 161.4 54.3312V34.6147Z" fill="white" fill-opacity="0.6"/>
<path d="M41.6074 24.5861V54.764C41.6074 59.1202 44.3287 61.9996 48.4126 61.9996C52.4965 61.9996 55.2997 59.1053 55.2997 54.764V24.5861C55.2997 21.1798 53.1927 17.473 48.4126 17.473C44.2878 17.473 41.6074 20.3524 41.6074 24.5861ZM89.9327 24.9015V35.4358C89.9327 35.5582 89.7689 35.6398 89.687 35.5174L78.0943 21.2503C76.486 19.2837 74.5055 17.4693 71.3523 17.4693C67.5514 17.4693 64.521 19.9739 64.521 24.4228V54.816C64.521 59.161 67.328 61.9884 71.3263 61.9884C75.7638 61.9884 78.2134 58.6341 78.2134 54.7751V43.3021C78.2134 43.1797 78.3772 43.098 78.4628 43.2205L89.7502 57.1017C92.829 60.6638 93.9793 61.9884 97.0915 61.9884C100.204 61.9884 103.584 59.3874 103.584 54.8011C103.584 53.5803 103.584 24.8941 103.584 24.8941C103.584 19.4804 100.196 17.4656 96.7341 17.4656C92.1663 17.4656 89.9289 20.4897 89.9289 24.8941M138.392 24.8941V35.4283C138.392 35.5508 138.228 35.6324 138.146 35.51L126.554 21.2429C124.945 19.2763 122.965 17.4618 119.812 17.4618C116.011 17.4618 112.98 19.9665 112.98 24.4154V54.8085C112.98 59.1536 115.787 61.981 119.786 61.981C124.223 61.981 126.673 58.6267 126.673 54.7677V43.2947C126.673 43.1722 126.836 43.0906 126.918 43.2131L138.206 57.0942C141.285 60.6564 142.435 61.981 145.547 61.981C148.659 61.981 152.04 59.3799 152.04 54.7937C152.04 53.5729 152.04 24.8867 152.04 24.8867C152.04 19.473 148.652 17.4581 145.19 17.4581C140.622 17.4581 138.384 20.4822 138.384 24.8867M25.2458 0C19.926 0 16.0878 1.15027 13.5712 3.57697C10.9727 6.0853 9.73678 9.90717 9.73678 15.2133L9.81869 17.4656H9.56926C7.92007 17.4656 6.43469 17.9999 5.48538 18.9461C4.53608 19.8106 4 21.1242 4 22.6863C4 24.2484 4.53608 25.5657 5.48538 26.5082C6.43469 27.4544 7.92007 27.9887 9.56926 27.9887H9.81869V54.764C9.81869 59.1202 12.4991 62.0404 16.6239 61.9996C21.6571 61.9996 23.511 57.9254 23.511 54.7232V27.9479H29.9477C31.6788 27.9479 33.0823 27.4135 34.1135 26.4674C35.0628 25.5212 35.5989 24.2076 35.5989 22.6455C35.5989 21.0833 35.0628 19.7661 34.1135 18.9053C33.0823 17.9591 31.6788 17.4247 29.9477 17.4247H23.511L23.4291 15.0092C23.4291 12.8719 23.7605 11.6808 25.6963 11.473C25.901 11.4322 29.5307 11.4322 29.7802 11.4322C33.5327 11.4322 35.8855 9.21329 35.8855 5.63633C35.8855 3.99255 35.2675 2.59367 34.2363 1.56585C33.1232 0.53803 31.5559 0.00371055 29.5345 0.00371055H25.2458V0ZM43.0072 2.17809C41.6037 3.6586 40.8219 5.55098 40.8219 7.56581C40.8219 9.58064 41.6037 11.5547 43.0072 12.9535C44.4925 14.434 46.4321 15.2133 48.4126 15.2133C50.516 15.2133 52.4146 14.434 53.8181 12.9535C55.3035 11.5547 56.0852 9.66598 56.0852 7.56581C56.0852 5.46564 55.2997 3.6586 53.8181 2.17809C52.4146 0.779216 50.516 0 48.4126 0C46.3093 0 44.4925 0.779216 43.0072 2.17809ZM161.436 7.11312V54.8048C161.436 59.3131 164.31 61.9996 168.323 61.9996C171.398 61.9996 175.128 59.7844 175.128 54.7603V47.239L178.427 43.7845C178.508 43.7437 178.631 43.7437 178.672 43.8253L187.376 58.3373C188.739 60.6786 190.924 61.9551 193.481 61.9959C198.794 61.9959 200 57.4319 200 55.7065C200 54.3076 199.669 53.0757 198.969 51.9663L188.325 35.15C188.284 35.0684 188.325 34.9868 188.366 34.946L195.749 27.9961C198.63 25.2763 198.258 21.473 195.935 19.1501C194.561 17.781 192.759 17.1798 190.801 17.6325C189.439 17.922 188.243 18.6604 187.008 19.8106L175.333 31.6918C175.277 31.7475 175.18 31.7252 175.128 31.6621V7.11312C175.128 3.70684 173.021 0 168.241 0C164.116 0 161.436 2.87939 161.436 7.11312Z" fill="white"/>
</g>
<defs>
<filter id="filter0_d_4614_965" x="0" y="0" width="203" height="70" filterUnits="userSpaceOnUse" color-interpolation-filters="sRGB">
<feFlood flood-opacity="0" result="BackgroundImageFix"/>
<feColorMatrix in="SourceAlpha" type="matrix" values="0 0 0 0 0 0 0 0 0 0 0 0 0 0 0 0 0 0 127 0" result="hardAlpha"/>
<feOffset dy="4"/>
<feGaussianBlur stdDeviation="2"/>
<feComposite in2="hardAlpha" operator="out"/>
<feColorMatrix type="matrix" values="0 0 0 0 0 0 0 0 0 0 0 0 0 0 0 0 0 0 0.25 0"/>
<feBlend mode="normal" in2="BackgroundImageFix" result="effect1_dropShadow_4614_965"/>
<feBlend mode="normal" in="SourceGraphic" in2="effect1_dropShadow_4614_965" result="shape"/>
</filter>
<clipPath id="clip0_4614_965">
<rect width="195" height="62" fill="white" transform="translate(4)"/>
</clipPath>
</defs>
</svg>
