<svg width="42" height="42" viewBox="0 0 42 42" fill="none" xmlns="http://www.w3.org/2000/svg">
<path d="M13.3265 22.5622C12.8672 22.011 12.0403 21.9322 11.4759 22.3916C10.9247 22.8509 10.8459 23.6778 11.3053 24.2422C13.064 26.3553 15.6365 27.5628 18.3797 27.5628C21.884 27.5628 25.034 25.6072 26.609 22.4703C26.9372 21.8272 26.6747 21.0397 26.0184 20.7116C25.3753 20.3834 24.5878 20.6459 24.2597 21.3022C23.1309 23.5466 20.8865 24.9378 18.3797 24.9378C16.424 24.9378 14.5865 24.0716 13.3265 22.5622Z" fill="white"/>
<path d="M26.2144 19.8844H26.2538C26.9625 19.8844 27.54 19.32 27.5663 18.6113V18.375C27.5663 17.6531 26.9757 17.0625 26.2538 17.0625C25.5319 17.0625 24.9413 17.6531 24.9413 18.375V18.5325C24.915 19.2544 25.4925 19.8581 26.2144 19.8844Z" fill="white"/>
<path d="M35.5074 1.3125H28.9449C28.223 1.3125 27.6324 1.90312 27.6324 2.625C27.6324 3.34687 28.223 3.9375 28.9449 3.9375H32.3443L28.3411 7.94063C25.7424 5.46 22.2511 3.9375 18.3793 3.9375C10.4124 3.9375 3.94176 10.4081 3.94176 18.375C3.94176 20.1075 4.26988 21.7612 4.82113 23.2969L1.69738 26.4206C1.18551 26.9325 1.18551 27.7594 1.69738 28.2713C1.95988 28.5338 2.28801 28.6519 2.62926 28.6519C2.97051 28.6519 3.29863 28.5206 3.56113 28.2713L6.02863 25.8037C8.56176 29.9906 13.1424 32.7994 18.3793 32.7994C26.3461 32.7994 32.8168 26.3288 32.8168 18.3619C32.8168 15.2119 31.793 12.2981 30.0605 9.9225L34.1949 5.78813V9.1875C34.1949 9.90938 34.7855 10.5 35.5074 10.5C36.2293 10.5 36.8199 9.90938 36.8199 9.1875V2.625C36.8199 1.90312 36.2293 1.3125 35.5074 1.3125ZM6.56676 18.375C6.56676 11.865 11.8693 6.5625 18.3793 6.5625C21.5161 6.5625 24.3643 7.79625 26.4774 9.80437L19.0486 17.2331L16.5286 13.7419C16.3055 13.4269 15.9511 13.23 15.5705 13.2038C15.1899 13.1775 14.8093 13.3088 14.5336 13.5844L6.90801 21.21C6.68488 20.3044 6.55363 19.3594 6.55363 18.375H6.56676ZM30.1918 18.375C30.1918 24.885 24.8893 30.1875 18.3793 30.1875C13.8643 30.1875 9.92676 27.6281 7.94488 23.9006L15.308 16.5375L17.828 20.0287C18.0511 20.3438 18.4055 20.5406 18.7861 20.5669C19.1668 20.5931 19.5474 20.4619 19.823 20.1863L28.1836 11.8125C29.4436 13.6894 30.1918 15.9469 30.1918 18.3881V18.375Z" fill="white"/>
<path d="M33.2497 26.7227C31.7141 29.4527 29.4566 31.7102 26.7266 33.2458L30.5328 37.052L37.0559 30.5289L33.2497 26.7227Z" fill="#00BFB3"/>
<path d="M39.5884 33.0497L38.9059 32.3672L32.3828 38.8903L33.0653 39.5728C33.7741 40.2816 34.7322 40.6884 35.7428 40.6884C36.7534 40.6884 37.7116 40.2947 38.4203 39.5728L39.5884 38.4047C41.0716 36.9347 41.0716 34.5197 39.5884 33.0497Z" fill="#00BFB3"/>
</svg>
