<svg width="43" height="43" viewBox="0 0 43 43" fill="none" xmlns="http://www.w3.org/2000/svg">
<g clip-path="url(#clip0_4614_755)">
<path d="M18.7623 21.897C18.2383 21.3729 17.3917 21.3729 16.8677 21.897C16.3436 22.421 16.3436 23.2676 16.8677 23.7916L18.2114 25.1354C18.4802 25.4041 18.8161 25.5251 19.1655 25.5251C19.5148 25.5251 19.8508 25.3907 20.1195 25.1354C20.6436 24.6113 20.6436 23.7648 20.1195 23.2407L18.7758 21.897H18.7623Z" fill="white"/>
<path d="M30.265 11.7384C28.4106 9.88406 25.4006 9.88406 23.5463 11.7384L20.6303 14.6544C19.0581 16.2266 19.0581 18.7797 20.6303 20.3519L21.6516 21.3731C22.4309 22.1525 23.4656 22.5556 24.5003 22.5556C25.535 22.5556 26.5697 22.1659 27.3491 21.3731L30.265 18.4572C32.1194 16.6028 32.1194 13.5928 30.265 11.7384ZM28.3703 16.5625L25.4544 19.4784C24.9303 20.0025 24.0838 20.0025 23.5597 19.4784L22.5384 18.4572C22.0144 17.9331 22.0144 17.0866 22.5384 16.5625L25.4544 13.6466C25.8575 13.2434 26.3816 13.0419 26.9191 13.0419C27.4566 13.0419 27.9806 13.2434 28.3838 13.6466C29.19 14.4528 29.19 15.7562 28.3838 16.5625H28.3703Z" fill="white"/>
<path d="M39.5501 13.1232C41.7538 6.99569 41.6732 1.75507 41.6597 1.64757C41.6329 0.935379 41.0685 0.357567 40.3563 0.344129C40.2488 0.344129 35.0082 0.263504 28.8807 2.45382L28.1685 1.74163C27.6444 1.21757 26.7979 1.21757 26.2738 1.74163C25.7497 2.26569 25.7632 3.01819 26.2201 3.55569C19.5551 6.63288 12.581 12.6529 10.3101 24.4644C10.2294 24.9079 10.3638 25.3513 10.6729 25.6738L16.3435 31.3444C16.5988 31.5998 16.9347 31.7341 17.2976 31.7341C17.3782 31.7341 17.4722 31.7341 17.5529 31.7073C29.3644 29.4363 35.3844 22.4623 38.4616 15.7973C38.7169 16.0123 39.0126 16.1332 39.3216 16.1332C39.671 16.1332 40.0069 15.9988 40.2757 15.7435C40.7997 15.2194 40.7997 14.3729 40.2757 13.8488L39.5635 13.1366L39.5501 13.1232ZM38.9588 3.0585C38.8782 4.71132 38.5826 7.69444 37.521 11.0941L30.9366 4.50975C34.3363 3.44819 37.3194 3.15257 38.9722 3.07194L38.9588 3.0585ZM17.741 28.9391L13.0782 24.2763C15.3894 13.4323 22.0141 8.12444 28.1416 5.51757L36.4863 13.8623C33.8794 19.9898 28.5716 26.6144 17.7276 28.9257L17.741 28.9391Z" fill="white"/>
<path d="M11.1837 28.9514C10.8612 28.6424 10.4177 28.4945 9.9743 28.5886C2.93305 29.9458 1.25336 36.2211 1.34743 39.352C1.3743 40.0642 1.93868 40.642 2.65086 40.6555C2.73149 40.6555 2.81211 40.6555 2.89274 40.6555C6.09086 40.6555 12.0974 38.8817 13.4143 32.0152C13.4949 31.5717 13.3606 31.1283 13.0515 30.8058L11.1971 28.9514H11.1837Z" fill="#00BFB3"/>
<path d="M18.9502 34.1532L20.1864 39.6088C20.2939 40.0926 20.6568 40.4688 21.1271 40.6032C21.248 40.6435 21.3824 40.657 21.5033 40.657C21.8527 40.657 22.2021 40.5226 22.4574 40.2673L27.8324 34.8923C29.2702 33.4545 30.063 31.5598 30.1571 29.6113C27.1202 31.6001 23.4383 33.1857 18.9771 34.1532H18.9502Z" fill="#00BFB3"/>
<path d="M2.39557 21.8168L7.8512 23.053C8.80526 18.6455 10.4178 14.9502 12.4737 11.873C10.4984 11.9537 8.56339 12.7465 7.11214 14.1977L1.73714 19.5727C1.38776 19.9221 1.26682 20.4193 1.4012 20.8896C1.53557 21.3599 1.91182 21.7227 2.39557 21.8302V21.8168Z" fill="#00BFB3"/>
</g>
<defs>
<clipPath id="clip0_4614_755">
<rect width="43" height="43" fill="white" transform="translate(0.00390625)"/>
</clipPath>
</defs>
</svg>
