<svg width="118" height="42" viewBox="0 0 118 42" fill="none" xmlns="http://www.w3.org/2000/svg">
<path d="M36.58 25.0372L30.7679 16.6892C30.3905 16.1375 29.9622 15.3657 29.5 14.9922C30.399 15.8479 30.823 17.4189 30.823 18.6265V31.3841L36.0007 38.9596C36.692 39.9673 37.7969 40.991 38.645 41.395C37.4025 40.6957 36.58 39.2152 36.58 37.4039V25.0372Z" fill="#00A9D9" fill-opacity="0.2"/>
<path d="M65.7146 24.7326L59.7151 16.3845C59.3255 15.8329 58.8834 15.0611 58.4062 14.6875C59.3342 15.5432 59.772 17.1143 59.772 18.3218V31.0794L65.1167 38.6549C65.8302 39.6626 66.9708 40.6863 67.8462 41.0903C66.5637 40.391 65.7146 38.9105 65.7146 37.0992V24.7326Z" fill="#00A9D9" fill-opacity="0.2"/>
<path d="M94.7579 24.7326L89.1333 16.3845C88.768 15.8329 88.3536 15.0611 87.9062 14.6875C88.7762 15.5432 89.1866 17.1143 89.1866 18.3218V31.0794L94.1973 38.6549C94.8662 39.6626 95.9355 40.6863 96.7562 41.0903C95.5539 40.391 94.7579 38.9105 94.7579 37.0992V24.7326Z" fill="#8EDD65" fill-opacity="0.3"/>
<path d="M22.6412 15.421V34.3493C22.6412 37.0816 24.2795 38.8876 26.7382 38.8876C29.1969 38.8876 30.8845 37.0723 30.8845 34.3493V15.421C30.8845 13.2845 29.616 10.9595 26.7382 10.9595C24.2549 10.9595 22.6412 12.7655 22.6412 15.421ZM51.735 15.6188V22.2261C51.735 22.3029 51.6363 22.3541 51.587 22.2773L44.6078 13.3287C43.6395 12.0952 42.4472 10.9571 40.5488 10.9571C38.2605 10.9571 36.4361 12.5281 36.4361 15.3186V34.3819C36.4361 37.1072 38.126 38.8806 40.5331 38.8806C43.2047 38.8806 44.6795 36.7767 44.6795 34.3563V27.1601C44.6795 27.0833 44.7781 27.0321 44.8296 27.1089L51.6251 35.8155C53.4787 38.0498 54.1712 38.8806 56.0449 38.8806C57.9186 38.8806 59.9537 37.2491 59.9537 34.3726C59.9537 33.6069 59.9537 15.6142 59.9537 15.6142C59.9537 12.2186 57.9141 10.9548 55.8297 10.9548C53.0797 10.9548 51.7327 12.8516 51.7327 15.6142M80.9094 15.6142V22.2215C80.9094 22.2983 80.8108 22.3495 80.7615 22.2727L73.7822 13.324C72.814 12.0906 71.6216 10.9525 69.7233 10.9525C67.435 10.9525 65.6106 12.5234 65.6106 15.3139V34.3772C65.6106 37.1025 67.3005 38.876 69.7076 38.876C72.3792 38.876 73.8539 36.772 73.8539 34.3516V27.1555C73.8539 27.0787 73.9526 27.0274 74.0019 27.1043L80.7974 35.8108C82.6509 38.0451 83.3434 38.876 85.2171 38.876C87.0908 38.876 89.1259 37.2445 89.1259 34.3679C89.1259 33.6022 89.1259 15.6095 89.1259 15.6095C89.1259 12.2139 87.0863 10.9502 85.002 10.9502C82.2519 10.9502 80.9049 12.8469 80.9049 15.6095M12.7909 0C9.5881 0 7.27736 0.721477 5.76227 2.24356C4.19788 3.81684 3.45378 6.21401 3.45378 9.54211L3.50309 10.9548H3.35292C2.36004 10.9548 1.46578 11.2899 0.894262 11.8834C0.322741 12.4257 0 13.2496 0 14.2294C0 15.2092 0.322741 16.0354 0.894262 16.6265C1.46578 17.22 2.36004 17.5552 3.35292 17.5552H3.50309V34.3493C3.50309 37.0816 5.11679 38.9132 7.60011 38.8876C10.6303 38.8876 11.7464 36.3322 11.7464 34.3237V17.5296H15.6216C16.6638 17.5296 17.5087 17.1944 18.1295 16.6009C18.7011 16.0075 19.0238 15.1836 19.0238 14.2038C19.0238 13.224 18.7011 12.3978 18.1295 11.8578C17.5087 11.2643 16.6638 10.9292 15.6216 10.9292H11.7464L11.6971 9.41411C11.6971 8.07356 11.8966 7.32648 13.0621 7.19615C13.1853 7.17055 15.3705 7.17055 15.5207 7.17055C17.7799 7.17055 19.1964 5.7788 19.1964 3.53524C19.1964 2.50422 18.8243 1.62681 18.2035 0.982139C17.5334 0.337465 16.5898 0.00232734 15.3728 0.00232734H12.7909V0ZM23.4839 1.36615C22.6389 2.29476 22.1683 3.48171 22.1683 4.74546C22.1683 6.0092 22.6389 7.24735 23.4839 8.12476C24.3782 9.05337 25.5459 9.54211 26.7382 9.54211C28.0045 9.54211 29.1476 9.05337 29.9925 8.12476C30.8868 7.24735 31.3574 6.06273 31.3574 4.74546C31.3574 3.42818 30.8845 2.29476 29.9925 1.36615C29.1476 0.488742 28.0045 0 26.7382 0C25.4719 0 24.3782 0.488742 23.4839 1.36615ZM94.7828 4.46152V34.3749C94.7828 37.2026 96.5131 38.8876 98.9291 38.8876C100.78 38.8876 103.026 37.4982 103.026 34.3469V29.6294L105.012 27.4627C105.061 27.4371 105.135 27.4371 105.16 27.4883L110.4 36.5905C111.22 38.0591 112.536 38.8597 114.076 38.8853C117.274 38.8853 118 36.0226 118 34.9404C118 34.063 117.801 33.2903 117.379 32.5945L110.971 22.0469C110.947 21.9957 110.971 21.9445 110.996 21.9189L115.44 17.5598C117.175 15.8539 116.951 13.4683 115.553 12.0114C114.726 11.1526 113.641 10.7756 112.462 11.0595C111.642 11.2411 110.922 11.7042 110.178 12.4257L103.149 19.8778C103.116 19.9128 103.058 19.8988 103.026 19.8592V4.46152C103.026 2.32502 101.758 0 98.8798 0C96.3965 0 94.7828 1.80602 94.7828 4.46152Z" fill="url(#paint0_linear_3044_59190)"/>
<defs>
<linearGradient id="paint0_linear_3044_59190" x1="7.08013" y1="38.8876" x2="102.837" y2="-20.3916" gradientUnits="userSpaceOnUse">
<stop stop-color="#00B0E3"/>
<stop offset="1" stop-color="#8EDD65"/>
</linearGradient>
</defs>
</svg>
