<svg width="43" height="43" viewBox="0 0 43 43" fill="none" xmlns="http://www.w3.org/2000/svg">
<path d="M15.457 38.9687H15.0002V35.7302C16.1423 34.4805 16.7739 32.8277 16.7739 31.1212V29.8715C16.7739 27.6946 15.7258 25.6387 13.9789 24.3487L10.9286 22.1046L11.9633 13.9615C12.1783 12.3221 11.372 10.7365 9.92078 9.93023C8.85922 9.33898 7.59609 9.25835 6.46734 9.71523C5.33859 10.1721 4.47859 11.0993 4.12922 12.2684L1.69703 20.2502C1.46859 21.0162 1.34766 21.809 1.34766 22.6018V29.3205C1.34766 31.7124 2.39578 33.9699 4.23672 35.5018L5.15047 36.2677V38.9552H4.69359C3.95453 38.9552 3.34984 39.5599 3.34984 40.299C3.34984 41.038 3.95453 41.6427 4.69359 41.6427H15.4436C16.1827 41.6427 16.7873 41.038 16.7873 40.299C16.7873 39.5599 16.1827 38.9552 15.4436 38.9552L15.457 38.9687ZM7.36766 34.6149L5.97016 33.4459C4.74734 32.4246 4.04859 30.9196 4.04859 29.3205V22.6018C4.04859 22.0643 4.12922 21.5402 4.27703 21.0296L6.70922 13.0477C6.83016 12.658 7.11234 12.349 7.48859 12.2012C7.86484 12.0534 8.28141 12.0802 8.63078 12.2684C9.11453 12.5371 9.38328 13.0612 9.30266 13.5987L8.21422 22.1852L7.44828 23.2199C6.02391 25.1415 5.91641 27.6946 7.16609 29.7237L7.93203 30.9599C8.18734 31.3765 8.63078 31.6049 9.07422 31.6049C9.31609 31.6049 9.55797 31.5377 9.77297 31.4034C10.4045 31.0137 10.6061 30.194 10.2164 29.549L9.45047 28.3127C8.77859 27.2109 8.83234 25.8402 9.59828 24.8055L9.78641 24.5637L12.3933 26.4852C13.4548 27.2646 14.0864 28.5277 14.0864 29.8446V31.0943C14.0864 32.2634 13.6027 33.3787 12.7427 34.158C12.4605 34.4134 12.3127 34.7762 12.3127 35.1524V38.9418H7.83797V35.6227C7.83797 35.2196 7.66328 34.8434 7.35422 34.588L7.36766 34.6149Z" fill="white"/>
<path d="M38.7711 35.5018C40.612 33.9699 41.6602 31.7124 41.6602 29.3205V22.6018C41.6602 21.809 41.5392 21.0162 41.3108 20.2502L38.8786 12.2684C38.5158 11.0993 37.6692 10.1721 36.5405 9.71523C35.4117 9.25835 34.1486 9.33898 33.087 9.93023C31.6358 10.7365 30.8295 12.3087 31.0445 13.9615L32.0792 22.1046L29.0289 24.3487C27.282 25.6387 26.2339 27.708 26.2339 29.8715V31.1212C26.2339 32.8277 26.8789 34.4671 28.0077 35.7302V38.9687H27.5508C26.8117 38.9687 26.207 39.5734 26.207 40.3124C26.207 41.0515 26.8117 41.6562 27.5508 41.6562H38.3008C39.0398 41.6562 39.6445 41.0515 39.6445 40.3124C39.6445 39.5734 39.0398 38.9687 38.3008 38.9687H37.8439V36.2812L38.7577 35.5152L38.7711 35.5018ZM30.6952 38.9687V35.1793C30.6952 34.803 30.5339 34.4402 30.2652 34.1849C29.4052 33.3921 28.9214 32.2768 28.9214 31.1212V29.8715C28.9214 28.5546 29.553 27.2915 30.6145 26.5121L33.2214 24.5905L33.4095 24.8324C34.1755 25.8671 34.2292 27.2377 33.5573 28.3396L32.7914 29.5759C32.4017 30.2074 32.6033 31.0405 33.2348 31.4302C33.4498 31.5646 33.6917 31.6318 33.9336 31.6318C34.3905 31.6318 34.8339 31.4034 35.0758 30.9868L35.8417 29.7505C37.0914 27.7215 36.9705 25.1549 35.5595 23.2468L34.7936 22.2121L33.6917 13.6255C33.6245 13.0746 33.8933 12.5505 34.3636 12.2952C34.713 12.0937 35.1295 12.0668 35.5058 12.228C35.882 12.3893 36.1642 12.6849 36.2852 13.0746L38.7173 21.0565C38.8786 21.5671 38.9458 22.0912 38.9458 22.6287V29.3474C38.9458 30.9465 38.247 32.4515 37.0242 33.4727L35.6267 34.6418C35.3177 34.8971 35.143 35.2734 35.143 35.6765V38.9955H30.6683L30.6952 38.9687Z" fill="white"/>
<path d="M27.497 9.41992C26.3952 11.6371 24.1377 13.169 21.5039 13.169C18.8702 13.169 16.5992 11.6237 15.5108 9.41992C14.2342 10.8443 13.4414 12.7255 13.4414 14.7815V16.7971C13.4414 18.6515 14.9464 20.1565 16.8008 20.1565H26.207C28.0614 20.1565 29.5664 18.6515 29.5664 16.7971V14.7815C29.5664 12.7255 28.787 10.8443 27.497 9.41992Z" fill="#00BFB3"/>
<path d="M21.5039 10.4812C23.7211 10.4812 25.5352 8.66719 25.5352 6.45V4.8375C25.5352 2.91594 23.963 1.34375 22.0414 1.34375H20.9664C19.0448 1.34375 17.4727 2.91594 17.4727 4.8375V6.45C17.4727 8.66719 19.2867 10.4812 21.5039 10.4812Z" fill="#00BFB3"/>
</svg>
