<svg width="43" height="43" viewBox="0 0 43 43" fill="none" xmlns="http://www.w3.org/2000/svg">
<path d="M32.25 19.0544C31.9544 18.3691 31.1616 18.06 30.4762 18.3556C29.7909 18.6512 29.4819 19.4441 29.7775 20.1294C30.5166 21.8359 30.9062 23.65 30.9062 25.5312C30.9062 32.9353 24.8728 38.9688 17.4688 38.9688C10.0647 38.9688 4.03125 32.9353 4.03125 25.5312C4.03125 18.1272 10.0647 12.0938 17.4688 12.0938C19.35 12.0938 21.1641 12.47 22.8706 13.2225C23.5559 13.5181 24.3488 13.2091 24.6444 12.5237C24.94 11.8384 24.6444 11.0456 23.9456 10.75C21.9031 9.84969 19.7128 9.40625 17.4688 9.40625C8.57313 9.40625 1.34375 16.6356 1.34375 25.5312C1.34375 34.4269 8.57313 41.6562 17.4688 41.6562C26.3644 41.6562 33.5938 34.4269 33.5938 25.5312C33.5938 23.2872 33.1369 21.0969 32.25 19.0544Z" fill="#2D373F"/>
<path d="M26.2031 25.5312C26.2031 30.3419 22.2794 34.2656 17.4688 34.2656C12.6581 34.2656 8.73438 30.3419 8.73438 25.5312C8.73438 20.7206 12.6581 16.7969 17.4688 16.7969C18.1541 16.7969 18.7722 16.8641 19.3634 17.0119C20.0756 17.1866 20.8147 16.7431 20.9894 16.0309C21.1641 15.3053 20.7206 14.5797 20.0084 14.405C19.2156 14.2034 18.3556 14.1094 17.4688 14.1094C11.1666 14.1094 6.04688 19.2291 6.04688 25.5312C6.04688 31.8334 11.1666 36.9531 17.4688 36.9531C23.7709 36.9531 28.8906 31.8334 28.8906 25.5312C28.8906 24.6444 28.7966 23.7844 28.595 22.9916C28.4203 22.2659 27.6947 21.8359 26.9691 22.0106C26.2434 22.1853 25.8134 22.9109 25.9881 23.6366C26.1359 24.2144 26.2031 24.8594 26.2031 25.5312Z" fill="#2D373F"/>
<path d="M14.6066 20.7747C14.0825 20.2507 13.2225 20.2641 12.7119 20.7747C11.4488 22.0513 10.75 23.7444 10.75 25.5182C10.75 29.2269 13.76 32.2369 17.4688 32.2369C19.2425 32.2369 20.9356 31.5382 22.2122 30.2751C22.7363 29.751 22.7497 28.9044 22.2122 28.3804C21.6881 27.8563 20.8416 27.8429 20.3175 28.3669C19.5381 29.1329 18.5303 29.5494 17.4553 29.5494C15.2381 29.5494 13.4241 27.7354 13.4241 25.5182C13.4241 24.4432 13.8406 23.4354 14.6066 22.656C15.1306 22.1319 15.1172 21.2719 14.6066 20.7613V20.7747Z" fill="#2D373F"/>
<path d="M41.6156 8.61283C41.4947 8.15595 41.1319 7.79314 40.675 7.65877L36.4825 6.51658L35.3403 2.32408C35.2194 1.8672 34.8566 1.50439 34.3862 1.38345C33.9294 1.26252 33.4322 1.38345 33.0962 1.73283L29.7234 5.10564C28.7022 6.12689 28.2991 7.63189 28.6887 9.01595L29.4144 11.69L16.5278 24.5766C16.0038 25.1006 16.0038 25.9472 16.5278 26.4713C16.7966 26.74 17.1325 26.861 17.4819 26.861C17.8313 26.861 18.1672 26.7266 18.4359 26.4713L31.3225 13.5847L33.9966 14.3103C34.3459 14.4044 34.6953 14.4447 35.0581 14.4447C36.1197 14.4447 37.1544 14.0281 37.9069 13.2622L41.2797 9.88939C41.6156 9.55346 41.75 9.05627 41.6291 8.59939L41.6156 8.61283Z" fill="#00BFB3"/>
</svg>
