<svg width="15" height="18" viewBox="0 0 15 18" fill="none" xmlns="http://www.w3.org/2000/svg">
<path d="M13.0282 3.67205C12.9123 3.61216 12.7995 3.5465 12.6902 3.47532C12.3723 3.26516 12.0808 3.01753 11.8221 2.73776C11.1746 1.99699 10.9328 1.24548 10.8438 0.719316H10.8474C10.773 0.282576 10.8037 0 10.8084 0H7.85957V11.4025C7.85957 11.5555 7.85957 11.7069 7.85314 11.8564C7.85314 11.875 7.85135 11.8921 7.85027 11.9122C7.85027 11.9204 7.85027 11.929 7.84848 11.9376C7.84848 11.9397 7.84848 11.9419 7.84848 11.944C7.8174 12.3531 7.68626 12.7483 7.46658 13.0949C7.24691 13.4414 6.94544 13.7286 6.5887 13.9313C6.2169 14.1429 5.79638 14.2538 5.36862 14.2533C3.99473 14.2533 2.88124 13.133 2.88124 11.7494C2.88124 10.3659 3.99473 9.24558 5.36862 9.24558C5.62869 9.24534 5.88716 9.28627 6.13443 9.36684L6.13801 6.36439C5.38735 6.26742 4.62474 6.32708 3.89828 6.5396C3.17183 6.75212 2.49731 7.11288 1.91726 7.59913C1.40901 8.04074 0.981714 8.56765 0.654614 9.15616C0.530137 9.37078 0.0604897 10.2332 0.00361692 11.6328C-0.0321521 12.4272 0.206427 13.2503 0.320173 13.5905V13.5976C0.391711 13.7979 0.668921 14.4815 1.12068 15.0577C1.48497 15.5199 1.91536 15.926 2.398 16.2628V16.2556L2.40515 16.2628C3.83269 17.2328 5.41547 17.1691 5.41547 17.1691C5.68947 17.1581 6.6073 17.1691 7.64961 16.6752C8.80567 16.1275 9.46381 15.3117 9.46381 15.3117C9.88428 14.8242 10.2186 14.2686 10.4525 13.6688C10.7193 12.9674 10.8084 12.1261 10.8084 11.7898V5.74057C10.8441 5.76204 11.3206 6.07716 11.3206 6.07716C11.3206 6.07716 12.007 6.51712 13.0779 6.80363C13.8462 7.00751 14.8814 7.05044 14.8814 7.05044V4.1231C14.5187 4.16244 13.7822 4.04798 13.0282 3.67205Z" fill="white"/>
</svg>
