<svg width="43" height="43" viewBox="0 0 43 43" fill="none" xmlns="http://www.w3.org/2000/svg">
<path d="M38.3008 8.0625C37.5617 8.0625 36.957 8.66719 36.957 9.40625V33.5938H6.05078V9.40625C6.05078 8.66719 5.44609 8.0625 4.70703 8.0625C3.96797 8.0625 3.36328 8.66719 3.36328 9.40625V34.9375C3.36328 35.6766 3.96797 36.2812 4.70703 36.2812H20.1602V38.9688H19.4883C18.7492 38.9688 18.1445 39.5734 18.1445 40.3125C18.1445 41.0516 18.7492 41.6562 19.4883 41.6562H23.5195C24.2586 41.6562 24.8633 41.0516 24.8633 40.3125C24.8633 39.5734 24.2586 38.9688 23.5195 38.9688H22.8477V36.2812H38.3008C39.0398 36.2812 39.6445 35.6766 39.6445 34.9375V9.40625C39.6445 8.66719 39.0398 8.0625 38.3008 8.0625Z" fill="white"/>
<path d="M33.5977 28.2188H20.1602C19.4211 28.2188 18.8164 28.8234 18.8164 29.5625C18.8164 30.3016 19.4211 30.9062 20.1602 30.9062H33.5977C34.3367 30.9062 34.9414 30.3016 34.9414 29.5625C34.9414 28.8234 34.3367 28.2188 33.5977 28.2188Z" fill="white"/>
<path d="M33.5977 23.5156H28.2227C27.4836 23.5156 26.8789 24.1203 26.8789 24.8594C26.8789 25.5984 27.4836 26.2031 28.2227 26.2031H33.5977C34.3367 26.2031 34.9414 25.5984 34.9414 24.8594C34.9414 24.1203 34.3367 23.5156 33.5977 23.5156Z" fill="white"/>
<path d="M9.40984 29.509C9.75922 29.509 10.0952 29.3746 10.3639 29.1193L20.2136 19.2696L24.003 23.059C24.527 23.583 25.3736 23.583 25.8977 23.059L32.267 16.6896V18.8262C32.267 19.5652 32.8717 20.1699 33.6108 20.1699C34.3498 20.1699 34.9545 19.5652 34.9545 18.8262V13.4512C34.9545 12.7121 34.3498 12.1074 33.6108 12.1074H28.2358C27.4967 12.1074 26.892 12.7121 26.892 13.4512C26.892 14.1902 27.4967 14.7949 28.2358 14.7949H30.3723L24.9436 20.2237L21.1542 16.4343C20.6302 15.9102 19.7836 15.9102 19.2595 16.4343L8.46922 27.2246C7.94516 27.7487 7.94516 28.5952 8.46922 29.1193C8.73797 29.388 9.07391 29.509 9.42328 29.509H9.40984Z" fill="white"/>
<path d="M9.41016 14.7812H10.7539C11.493 14.7812 12.0977 14.1766 12.0977 13.4375C12.0977 12.6984 11.493 12.0938 10.7539 12.0938H9.41016C8.67109 12.0938 8.06641 12.6984 8.06641 13.4375C8.06641 14.1766 8.67109 14.7812 9.41016 14.7812Z" fill="white"/>
<path d="M14.7852 14.7812H16.1289C16.868 14.7812 17.4727 14.1766 17.4727 13.4375C17.4727 12.6984 16.868 12.0938 16.1289 12.0938H14.7852C14.0461 12.0938 13.4414 12.6984 13.4414 13.4375C13.4414 14.1766 14.0461 14.7812 14.7852 14.7812Z" fill="white"/>
<path d="M38.9727 1.34375H4.03516C2.55703 1.34375 1.34766 2.55313 1.34766 4.03125V6.71875H41.6602V4.03125C41.6602 2.55313 40.4508 1.34375 38.9727 1.34375Z" fill="#00BFB3"/>
</svg>
