<svg width="43" height="43" viewBox="0 0 43 43" fill="none" xmlns="http://www.w3.org/2000/svg">
<path d="M14.0287 31.0541C14.0691 30.7853 14.1094 30.5166 14.1094 30.2344V28.2188C14.1094 26.0016 12.2953 24.1875 10.0781 24.1875H8.73438C6.51719 24.1875 4.70312 26.0016 4.70312 28.2188V30.2344C4.70312 30.5166 4.74344 30.7853 4.78375 31.0541C2.63375 32.5456 1.34375 34.9778 1.34375 37.625V38.2969C1.34375 40.1512 2.84875 41.6562 4.70312 41.6562H14.1094C15.9637 41.6562 17.4688 40.1512 17.4688 38.2969V37.625C17.4688 34.9778 16.1787 32.5456 14.0287 31.0541ZM7.39062 28.2188C7.39062 27.4797 7.99531 26.875 8.73438 26.875H10.0781C10.8172 26.875 11.4219 27.4797 11.4219 28.2188V30.2344C11.4219 31.3497 10.5216 32.25 9.40625 32.25C8.29094 32.25 7.39062 31.3497 7.39062 30.2344V28.2188ZM14.7812 38.2969C14.7812 38.6731 14.4856 38.9688 14.1094 38.9688H4.70312C4.32687 38.9688 4.03125 38.6731 4.03125 38.2969V37.625C4.03125 35.9991 4.78375 34.4941 6.03344 33.4862C6.89344 34.3731 8.08938 34.9375 9.40625 34.9375C10.7231 34.9375 11.9325 34.3731 12.7791 33.4862C14.0288 34.4941 14.7812 35.9856 14.7812 37.625V38.2969Z" fill="#2D373F"/>
<path d="M38.2163 31.0541C38.2566 30.7853 38.2969 30.5166 38.2969 30.2344V28.2188C38.2969 26.0016 36.4828 24.1875 34.2656 24.1875H32.9219C30.7047 24.1875 28.8906 26.0016 28.8906 28.2188V30.2344C28.8906 30.5166 28.9309 30.7853 28.9712 31.0541C26.8212 32.5456 25.5312 34.9778 25.5312 37.625V38.2969C25.5312 40.1512 27.0362 41.6562 28.8906 41.6562H38.2969C40.1512 41.6562 41.6562 40.1512 41.6562 38.2969V37.625C41.6562 34.9778 40.3663 32.5456 38.2163 31.0541ZM31.5781 28.2188C31.5781 27.4797 32.1828 26.875 32.9219 26.875H34.2656C35.0047 26.875 35.6094 27.4797 35.6094 28.2188V30.2344C35.6094 31.3497 34.7091 32.25 33.5938 32.25C32.4784 32.25 31.5781 31.3497 31.5781 30.2344V28.2188ZM38.9688 38.2969C38.9688 38.6731 38.6731 38.9688 38.2969 38.9688H28.8906C28.5144 38.9688 28.2188 38.6731 28.2188 38.2969V37.625C28.2188 35.9991 28.9712 34.4941 30.2209 33.4862C31.0809 34.3731 32.2769 34.9375 33.5938 34.9375C34.9106 34.9375 36.12 34.3731 36.9666 33.4862C38.2163 34.4941 38.9688 35.9856 38.9688 37.625V38.2969Z" fill="#2D373F"/>
<path d="M26.875 28.2188C26.875 27.4797 26.2703 26.875 25.5312 26.875H22.8438V22.8438C22.8438 22.1047 22.2391 21.5 21.5 21.5C20.7609 21.5 20.1562 22.1047 20.1562 22.8438V26.875H17.4688C16.7297 26.875 16.125 27.4797 16.125 28.2188C16.125 28.9578 16.7297 29.5625 17.4688 29.5625H25.5312C26.2703 29.5625 26.875 28.9578 26.875 28.2188Z" fill="#2D373F"/>
<path d="M27.4931 9.41992C26.3912 11.6371 24.1337 13.169 21.5 13.169C18.8663 13.169 16.5953 11.6237 15.5069 9.41992C14.2303 10.8443 13.4375 12.7255 13.4375 14.7815V16.7971C13.4375 18.6515 14.9425 20.1565 16.7969 20.1565H26.2031C28.0575 20.1565 29.5625 18.6515 29.5625 16.7971V14.7815C29.5625 12.7255 28.7831 10.8443 27.4931 9.41992Z" fill="#00BFB3"/>
<path d="M21.5 10.4812C23.7172 10.4812 25.5312 8.66719 25.5312 6.45V4.8375C25.5312 2.91594 23.9591 1.34375 22.0375 1.34375H20.9625C19.0409 1.34375 17.4688 2.91594 17.4688 4.8375V6.45C17.4688 8.66719 19.2828 10.4812 21.5 10.4812Z" fill="#00BFB3"/>
</svg>
